<svg width="901" height="900" viewBox="0 0 901 900" fill="none" xmlns="http://www.w3.org/2000/svg">
<path d="M112.582 0.0956185L106.073 0.557725C97.4086 1.17568 90.103 4.49559 84.2047 10.5538C70.418 24.7141 65.4679 48.7394 64.3917 87.5006C62.5603 153.459 77.4401 260.589 105.585 387.347C107.91 397.814 109.142 403.681 109.678 407.382C110.215 411.082 110.166 412.473 109.892 415.815C106.04 462.877 72.3725 525.584 12.3461 593.027C9.49705 596.228 6.91291 599.239 4.97726 601.6C4.00943 602.78 3.2147 603.783 2.56164 604.664C2.23507 605.105 1.9492 605.495 1.62223 606.014C1.45888 606.274 1.2868 606.552 1.04272 607.054C0.798488 607.556 0.182617 607.823 0.182617 610.714C0.182617 613.876 2.00874 616.003 3.03744 616.88C4.06614 617.757 4.71343 618.008 5.20296 618.218C6.182 618.636 6.63265 618.706 7.07568 618.801C7.96171 618.991 8.6367 619.066 9.4608 619.154C11.109 619.33 13.1943 619.473 15.872 619.61C21.2274 619.885 28.8333 620.121 38.3141 620.303C54.8182 620.621 73.5759 621.417 78.2145 621.884C172.469 631.365 234.753 655.575 276.332 697.353C291.301 712.394 298.239 722.77 311.718 750.483C323.881 775.488 329.921 786.419 340.401 802.361C356.593 826.993 376.297 848.001 395.716 860.714C400.183 863.638 402.303 865.187 403.158 866.034C404.013 866.881 404.337 867.422 405.739 870.26C412.278 883.5 423.517 894.233 436.568 898.473C436.593 898.477 436.617 898.481 436.641 898.485C441.253 899.972 446.15 900.129 451.971 899.932C459.255 899.687 464.135 898.614 469.466 896.035C479.794 891.039 489.147 881.24 494.372 870.607C495.89 867.519 496.271 866.873 497.093 866.047C497.915 865.22 500.007 863.69 504.553 860.714C523.977 847.998 543.722 826.897 560.064 802.051C570.322 786.454 576.483 775.3 588.313 750.94C602.846 721.014 610.612 709.699 627.573 693.493C664.042 658.646 724.895 633.76 799.631 624.438C823.65 621.442 832.199 620.876 861.949 620.303C871.43 620.121 879.035 619.885 884.391 619.61C887.07 619.473 889.16 619.33 890.809 619.154C891.633 619.066 892.302 618.991 893.188 618.802C893.631 618.707 894.088 618.636 895.066 618.218C895.556 618.009 896.203 617.757 897.232 616.88C898.261 616.004 900.087 613.878 900.087 610.715C900.087 607.819 899.471 607.551 899.227 607.048C898.982 606.546 898.811 606.268 898.647 606.009C898.32 605.489 898.035 605.099 897.708 604.659C897.054 603.778 896.254 602.774 895.286 601.594C893.349 599.234 890.765 596.227 887.917 593.027C829.395 527.274 796.977 468.058 791.738 421.093C791.026 414.716 790.62 414.255 791.439 408.665C792.258 403.075 794.582 392.542 799.527 369.665C817.69 285.645 829.643 210.835 835.347 145.252C835.347 145.25 835.347 145.248 835.347 145.246C836.228 135.03 836.621 117.285 836.622 100.239C836.623 83.1931 836.35 67.7529 835.304 60.1757C831.341 31.463 823.522 11.7779 807.439 4.01754C803.174 1.95932 798.712 1.21421 794.336 1.02605C792.149 0.932037 790.015 1.00424 787.87 1.37259C785.726 1.73944 783.49 2.13224 780.855 4.37024C779.907 5.17568 767.98 15.4075 748.421 32.1757C728.862 48.9438 702.121 71.8699 672.921 96.907C643.722 121.943 617 144.838 597.475 161.559C587.713 169.92 579.754 176.736 574.179 181.503C571.392 183.886 569.199 185.756 567.683 187.048C567.541 187.169 567.483 187.217 567.353 187.328C566.591 187.124 566.114 187.032 564.224 186.386C545.049 179.826 517.076 173.83 491.426 170.662C476.286 168.792 431.07 168.949 414.364 170.741C388.125 173.555 361.351 178.994 339.223 186.051L334.398 187.589L331.739 185.285C328.131 182.155 283.824 144.095 232.729 100.233C181.636 56.3735 134.96 16.287 129.138 11.2655L118.432 2.03558C116.817 0.642473 114.713 -0.055403 112.582 0.0956185ZM107.922 18.7076C108.233 18.9566 108.433 19.1105 108.843 19.4433C110.508 20.7967 112.936 22.8113 115.992 25.3595C122.104 30.4558 130.737 37.716 141.027 46.4157C161.605 63.8151 188.83 86.9644 215.984 110.132C243.138 133.299 270.223 156.487 290.515 173.957C300.645 182.679 309.075 189.969 314.97 195.117C281.051 208.458 243.639 231.337 213.855 256.929C176.356 289.151 143.319 332.664 122.086 376.281C121.85 375.208 121.711 374.664 121.464 373.532C118.37 359.339 114.483 340.689 110.996 323.053C97.5399 254.997 88.0106 189.949 83.9973 139.025C82.4822 119.816 82.6601 74.9104 83.9485 64.7236C85.8946 49.3373 89.0883 37.7818 92.9156 30.3697C96.743 22.9575 100.549 20.0183 104.817 19.0663C107.116 18.5533 107.757 18.7211 107.922 18.7076ZM792.671 19.4919C798.708 19.0275 802.111 20.6638 806.39 27.1228C810.669 33.5817 814.484 45.2693 816.748 61.9084C818.609 75.5929 819.006 116.731 817.23 139.019C812.108 203.292 799.116 283.891 779.312 375.77C766.67 350.11 748.978 322.455 730.042 299.644C717.715 284.794 692.974 260.554 677.825 248.484C650.325 226.572 617.712 207.348 587.715 195.196C593.035 190.472 600.361 184.041 609.663 175.933C629.035 159.049 655.879 135.847 685.499 110.411C736.212 66.8624 763.23 43.7118 777.909 31.5249C785.248 25.4315 789.546 22.0573 791.86 20.4405C794.173 18.8237 793.447 19.4322 792.671 19.4919ZM454.899 187.759C469.281 187.759 483.076 188.464 493.317 189.796C551.423 197.354 601.307 216.639 648.813 249.888C679.057 271.055 711.177 303.209 733.714 334.952C742.536 347.379 752.842 364.799 760.609 379.68C764.492 387.12 767.76 393.961 769.875 399.1C770.933 401.67 771.698 403.83 772.095 405.241C772.493 406.652 772.033 407.793 772.547 405.46C771.878 408.498 772.067 410.65 772.236 413.681C772.405 416.711 772.755 420.217 773.248 423.981C774.234 431.509 775.76 439.984 777.561 447.013C784.871 475.537 799.652 506.144 821.036 538.158C795.743 533.803 762.465 532.059 738.271 534.315C617 545.623 525.885 621.827 473.278 754.515C471.233 759.674 469.243 764.82 467.666 768.992C466.089 773.164 465.041 775.923 464.445 777.948L463.231 782.077C462.839 783.412 462.8 784.826 463.12 786.181C463.439 787.536 464.106 788.784 465.055 789.805L470.362 795.514C479.752 805.628 484.205 817.566 484.179 833.887C484.16 845.238 482.827 851.264 478.677 859.601C473.157 870.69 468.143 875.736 459.931 879.411C452.632 882.677 446.091 882.461 439.588 879.326C433.085 876.191 426.6 869.699 421.574 859.601C417.424 851.263 416.09 845.237 416.072 833.888C416.044 817.663 420.537 805.58 429.748 795.66C431.313 793.975 432.719 792.337 433.854 790.875C434.421 790.144 434.917 789.477 435.403 788.711C435.646 788.327 435.887 787.931 436.178 787.318C436.468 786.706 437.056 786.191 437.056 783.548C437.056 781.767 436.852 781.543 436.721 781.007C436.59 780.471 436.442 779.98 436.275 779.432C435.942 778.335 435.516 777.047 434.988 775.534C433.933 772.508 432.501 768.622 430.877 764.359C427.629 755.832 423.635 745.852 420.495 738.621C367.221 615.961 278.136 545.146 161.98 534.315C137.817 532.062 104.526 533.808 79.2697 538.152L79.3369 538.055C85.4082 528.948 93.0993 516.674 96.838 510.061C115.971 476.217 128.015 440.681 128.577 413.395C128.755 404.733 128.458 406.135 132.377 397.142C170.953 308.624 249.49 236.044 339.102 205.94C361.24 198.502 389.795 192.245 412.638 189.821C425.496 188.457 440.517 187.759 454.899 187.759ZM275.746 481.434C262.792 481.434 250.966 485.567 242.214 492.652C233.463 499.737 227.698 510.235 228.434 521.765C228.882 528.77 231.544 535.951 237.438 540.134C243.332 544.317 250.451 545.562 259.972 546.457C272.385 547.624 274.852 548.345 284.53 553.65C288.671 555.92 293.905 558.696 296.596 560.041C303.271 563.375 310.693 564.332 317.166 561.616C323.639 558.9 328.139 552.861 330.22 545.764C331.706 540.694 331.954 536.01 331.013 530.49C328.405 515.201 318.73 500.714 305.387 491.223C295.987 484.538 286.713 481.434 275.746 481.434ZM625.487 481.434C614.533 481.434 605.255 484.534 595.902 491.187C586.962 497.546 580.375 505.182 575.533 514.846C571.567 522.763 569.509 530.705 569.757 538.237C570.004 545.769 572.817 553.122 578.535 558.126C581.941 561.107 587.244 563.166 591.674 563.166C594.575 563.166 597.989 562.773 601.349 561.47C604.709 560.167 608.138 558.273 613.891 555.061C625.091 548.807 628.842 547.623 641.182 546.463C650.74 545.565 657.869 544.326 663.777 540.146C669.684 535.966 672.351 528.775 672.799 521.765C673.535 510.235 667.77 499.737 659.019 492.652C650.267 485.567 638.442 481.434 625.487 481.434ZM279.248 499.821C284.583 500.358 291.699 503.726 297.816 509.008C303.934 514.291 309.018 521.353 311.316 528.01C312.744 532.148 312.986 536.462 312.402 539.599C311.817 542.736 310.493 544.256 309.986 544.554C308.631 545.352 309.992 545.209 308.321 544.767C306.65 544.325 302.52 542.421 295.809 538.596C284.799 532.319 274.133 528.953 262.015 527.997C258.072 527.687 252.334 526.798 251.572 526.605C247.811 525.652 246.016 522.956 246.655 518.974C247.439 514.089 251.251 508.818 257.361 504.996C263.47 501.173 271.554 499.046 279.248 499.821ZM621.985 499.821C634.709 498.539 649.346 506.441 653.327 514.925C655.364 519.265 655.288 520.286 654.188 522.859C653.248 525.058 653.244 525.054 651.589 525.815C649.934 526.575 645.974 527.465 639.218 527.997C627.001 528.961 616.394 532.368 604.789 538.93C602.329 540.321 599.694 541.709 597.536 542.773C595.379 543.837 593.109 544.681 593.767 544.493C591.777 545.062 591.256 544.995 591.705 545.035C592.154 545.074 592.458 545.35 591.229 544.591C591.075 544.495 588.441 540.699 588.441 536.236C588.441 529.485 592.665 520.245 599.379 512.936C606.092 505.627 615.031 500.522 621.985 499.821ZM137.245 551.638C174.553 552.048 211.544 559.541 244.935 573.77C263.708 581.77 287.427 596.054 305.014 610.027C322.553 623.962 346.673 649.908 362.129 671.64C381.512 698.892 401.079 736.919 414.614 773.881C414.614 773.883 414.614 773.885 414.614 773.887L417.249 781.08L419.482 779.335C415.824 782.203 413.35 785.743 410.478 790C407.607 794.257 404.934 798.821 403.201 803.073C398.807 813.852 397.049 826.583 397.625 838.782C373.412 819.655 350.569 789.085 329.396 744.707C314.87 714.259 306.183 700.952 289.966 684.53C237.394 631.296 144.012 601.984 33.9951 601.965H28.9687C35.5288 594.527 42.976 585.87 49.5686 577.82C53.4583 573.07 56.9429 568.723 59.5604 565.325C60.8692 563.626 61.9553 562.175 62.8179 560.953C62.9244 560.802 63.0046 560.672 63.1046 560.527C63.2192 560.491 63.2251 560.48 63.3485 560.442C65.0778 559.909 67.678 559.22 70.4733 558.594C92.3697 553.693 114.859 551.392 137.245 551.638ZM756.736 551.705C781.953 550.892 807.411 553.353 832.144 559.196L837.616 560.485L842.74 567.447C849.805 577.043 860.944 590.178 871.41 601.965H866.286C840.471 601.968 822.85 603.026 798.6 606.039C699.521 618.347 625.85 654.372 588.624 711.198C584.947 716.811 578.138 729.785 572.209 741.971C560.48 766.079 554.121 777.491 543.679 793.204C530.606 812.876 516.486 828.363 502.613 839.25C503.264 826.91 501.5 813.989 497.05 803.072C495.317 798.821 492.644 794.257 489.773 790C486.901 785.742 484.427 782.203 480.769 779.335L483.002 781.08L485.637 773.887C485.637 773.885 485.637 773.883 485.637 773.88C501.919 729.402 522.99 690.62 549.023 657.053C558.274 645.124 584.266 618.709 595.231 610.021C606.418 601.157 625.861 588.409 637.217 582.459C673.369 563.516 714.706 553.059 756.736 551.705ZM399.992 855.236C400.102 855.637 400.12 856.091 400.236 856.488C400.261 856.569 399.985 856.183 399.992 855.236ZM500.216 855.442C500.222 856.364 499.968 856.649 500.015 856.488C500.112 856.157 500.124 855.777 500.216 855.442Z" fill="#c6d0f5"/>
</svg>
