<svg id="visual" viewBox="0 0 2560 1080" width="2560" height="1080" xmlns="http://www.w3.org/2000/svg" xmlns:xlink="http://www.w3.org/1999/xlink" version="1.1"><g stroke-width="1" stroke-linejoin="bevel"><path d="M1334 524L1363 552L1454 535Z" fill="#222225" stroke="#18181B"></path><path d="M1454 535L1465 450L1334 524Z" fill="#1f1f22" stroke="#18181B"></path><path d="M1465 450L1341 386L1334 524Z" fill="#27272a" stroke="#18181B"></path><path d="M1612 532L1489 409L1465 450Z" fill="#212124" stroke="#18181B"></path><path d="M1465 450L1489 409L1341 386Z" fill="#19191c" stroke="#18181B"></path><path d="M1612 532L1497 390L1489 409Z" fill="#252528" stroke="#18181B"></path><path d="M1489 409L1497 390L1341 386Z" fill="#1b1b1e" stroke="#18181B"></path><path d="M1341 386L1256 394L1334 524Z" fill="#27272a" stroke="#18181B"></path><path d="M1205 566L1371 680L1363 552Z" fill="#212124" stroke="#18181B"></path><path d="M1363 552L1371 680L1454 535Z" fill="#222225" stroke="#18181B"></path><path d="M1205 566L1363 552L1334 524Z" fill="#1c1c1f" stroke="#18181B"></path><path d="M1256 394L1205 566L1334 524Z" fill="#1b1b1e" stroke="#18181B"></path><path d="M1551 733L1612 532L1454 535Z" fill="#222225" stroke="#18181B"></path><path d="M1454 535L1612 532L1465 450Z" fill="#19191c" stroke="#18181B"></path><path d="M1497 390L1302 286L1341 386Z" fill="#242427" stroke="#18181B"></path><path d="M1341 386L1302 286L1256 394Z" fill="#27272a" stroke="#18181B"></path><path d="M1396 171L1285 263L1302 286Z" fill="#222225" stroke="#18181B"></path><path d="M1302 286L1189 277L1256 394Z" fill="#1c1c1f" stroke="#18181B"></path><path d="M1256 394L1118 476L1205 566Z" fill="#252528" stroke="#18181B"></path><path d="M1721 626L1651 515L1612 532Z" fill="#1e1e21" stroke="#18181B"></path><path d="M1612 532L1651 515L1497 390Z" fill="#1b1b1e" stroke="#18181B"></path><path d="M1113 299L1118 476L1256 394Z" fill="#1b1b1e" stroke="#18181B"></path><path d="M1118 476L1119 520L1205 566Z" fill="#18181b" stroke="#18181B"></path><path d="M1244 788L1442 814L1371 680Z" fill="#212124" stroke="#18181B"></path><path d="M905 670L1118 538L851 635Z" fill="#252528" stroke="#18181B"></path><path d="M1119 520L1118 538L1205 566Z" fill="#212124" stroke="#18181B"></path><path d="M1371 680L1551 733L1454 535Z" fill="#252528" stroke="#18181B"></path><path d="M1543 225L1511 214L1497 390Z" fill="#222225" stroke="#18181B"></path><path d="M1497 390L1511 214L1302 286Z" fill="#1f1f22" stroke="#18181B"></path><path d="M1145 260L1189 277L1166 107Z" fill="#27272a" stroke="#18181B"></path><path d="M1285 263L1189 277L1302 286Z" fill="#242427" stroke="#18181B"></path><path d="M1647 309L1543 225L1497 390Z" fill="#1f1f22" stroke="#18181B"></path><path d="M1651 515L1647 309L1497 390Z" fill="#242427" stroke="#18181B"></path><path d="M1411 107L1396 171L1511 214Z" fill="#19191c" stroke="#18181B"></path><path d="M1511 214L1396 171L1302 286Z" fill="#18181b" stroke="#18181B"></path><path d="M1244 788L1371 680L1205 566Z" fill="#27272a" stroke="#18181B"></path><path d="M1371 680L1442 814L1551 733Z" fill="#1e1e21" stroke="#18181B"></path><path d="M1082 753L1244 788L1205 566Z" fill="#242427" stroke="#18181B"></path><path d="M1081 212L1145 260L1166 107Z" fill="#1f1f22" stroke="#18181B"></path><path d="M1189 277L1113 299L1256 394Z" fill="#18181b" stroke="#18181B"></path><path d="M1145 260L1113 299L1189 277Z" fill="#1f1f22" stroke="#18181B"></path><path d="M1075 759L1082 753L988 735Z" fill="#18181b" stroke="#18181B"></path><path d="M1647 309L1598 208L1543 225Z" fill="#1c1c1f" stroke="#18181B"></path><path d="M1543 225L1598 208L1511 214Z" fill="#18181b" stroke="#18181B"></path><path d="M1749 694L1721 626L1698 766Z" fill="#27272a" stroke="#18181B"></path><path d="M1551 733L1721 626L1612 532Z" fill="#242427" stroke="#18181B"></path><path d="M1734 237L1709 234L1647 309Z" fill="#252528" stroke="#18181B"></path><path d="M1218 863L1462 856L1442 814Z" fill="#1f1f22" stroke="#18181B"></path><path d="M1442 814L1496 871L1551 733Z" fill="#27272a" stroke="#18181B"></path><path d="M1457 0L1411 107L1468 0Z" fill="#1b1b1e" stroke="#18181B"></path><path d="M1325 44L1166 107L1285 263Z" fill="#18181b" stroke="#18181B"></path><path d="M1447 982L1496 871L1462 856Z" fill="#1c1c1f" stroke="#18181B"></path><path d="M1462 856L1496 871L1442 814Z" fill="#222225" stroke="#18181B"></path><path d="M1647 309L1709 234L1598 208Z" fill="#1c1c1f" stroke="#18181B"></path><path d="M1468 0L1411 107L1511 214Z" fill="#1b1b1e" stroke="#18181B"></path><path d="M1734 237L1647 309L1879 396Z" fill="#222225" stroke="#18181B"></path><path d="M1698 766L1721 626L1551 733Z" fill="#222225" stroke="#18181B"></path><path d="M1836 487L1647 309L1651 515Z" fill="#27272a" stroke="#18181B"></path><path d="M1646 907L1698 766L1551 733Z" fill="#242427" stroke="#18181B"></path><path d="M1082 753L1118 538L988 735Z" fill="#252528" stroke="#18181B"></path><path d="M1118 538L1082 753L1205 566Z" fill="#1b1b1e" stroke="#18181B"></path><path d="M1244 788L1218 863L1442 814Z" fill="#1e1e21" stroke="#18181B"></path><path d="M1082 753L1218 863L1244 788Z" fill="#242427" stroke="#18181B"></path><path d="M1828 503L1651 515L1721 626Z" fill="#19191c" stroke="#18181B"></path><path d="M1468 0L1511 214L1598 208Z" fill="#1f1f22" stroke="#18181B"></path><path d="M1145 260L1081 212L1113 299Z" fill="#1c1c1f" stroke="#18181B"></path><path d="M1113 299L976 306L1118 476Z" fill="#1f1f22" stroke="#18181B"></path><path d="M1166 107L1189 277L1285 263Z" fill="#18181b" stroke="#18181B"></path><path d="M1118 538L1119 520L851 635Z" fill="#222225" stroke="#18181B"></path><path d="M1082 753L1075 759L1218 863Z" fill="#18181b" stroke="#18181B"></path><path d="M1749 694L1828 503L1721 626Z" fill="#19191c" stroke="#18181B"></path><path d="M1955 572L1836 487L1828 503Z" fill="#1c1c1f" stroke="#18181B"></path><path d="M1828 503L1836 487L1651 515Z" fill="#242427" stroke="#18181B"></path><path d="M1325 44L1285 263L1396 171Z" fill="#252528" stroke="#18181B"></path><path d="M1457 0L1325 44L1411 107Z" fill="#212124" stroke="#18181B"></path><path d="M1411 107L1325 44L1396 171Z" fill="#19191c" stroke="#18181B"></path><path d="M930 260L976 306L1081 212Z" fill="#252528" stroke="#18181B"></path><path d="M1081 212L976 306L1113 299Z" fill="#1b1b1e" stroke="#18181B"></path><path d="M905 670L988 735L1118 538Z" fill="#27272a" stroke="#18181B"></path><path d="M1075 759L1201 933L1218 863Z" fill="#222225" stroke="#18181B"></path><path d="M1076 1020L1201 933L1075 759Z" fill="#1c1c1f" stroke="#18181B"></path><path d="M1218 863L1447 982L1462 856Z" fill="#212124" stroke="#18181B"></path><path d="M1496 871L1646 907L1551 733Z" fill="#242427" stroke="#18181B"></path><path d="M1945 688L1828 503L1749 694Z" fill="#1c1c1f" stroke="#18181B"></path><path d="M1568 1041L1646 907L1496 871Z" fill="#1f1f22" stroke="#18181B"></path><path d="M1955 572L1879 396L1836 487Z" fill="#222225" stroke="#18181B"></path><path d="M1836 487L1879 396L1647 309Z" fill="#19191c" stroke="#18181B"></path><path d="M1468 0L1598 208L1643 0Z" fill="#1c1c1f" stroke="#18181B"></path><path d="M1643 0L1598 208L1709 234Z" fill="#1f1f22" stroke="#18181B"></path><path d="M1201 933L1447 982L1218 863Z" fill="#19191c" stroke="#18181B"></path><path d="M1879 396L1845 263L1734 237Z" fill="#242427" stroke="#18181B"></path><path d="M1810 72L1643 0L1709 234Z" fill="#252528" stroke="#18181B"></path><path d="M1325 44L1222 0L1166 107Z" fill="#27272a" stroke="#18181B"></path><path d="M895 151L930 260L1081 212Z" fill="#1e1e21" stroke="#18181B"></path><path d="M1457 0L1222 0L1325 44Z" fill="#222225" stroke="#18181B"></path><path d="M1064 0L1081 212L1166 107Z" fill="#27272a" stroke="#18181B"></path><path d="M868 388L1119 520L1118 476Z" fill="#18181b" stroke="#18181B"></path><path d="M868 388L1118 476L976 306Z" fill="#18181b" stroke="#18181B"></path><path d="M988 735L951 823L1075 759Z" fill="#1c1c1f" stroke="#18181B"></path><path d="M1426 1080L1456 1018L1447 982Z" fill="#1e1e21" stroke="#18181B"></path><path d="M1447 982L1568 1041L1496 871Z" fill="#212124" stroke="#18181B"></path><path d="M930 260L868 388L976 306Z" fill="#27272a" stroke="#18181B"></path><path d="M1810 72L1709 234L1734 237Z" fill="#1c1c1f" stroke="#18181B"></path><path d="M1222 0L1147 0L1166 107Z" fill="#1e1e21" stroke="#18181B"></path><path d="M855 760L951 823L988 735Z" fill="#1e1e21" stroke="#18181B"></path><path d="M1945 688L1749 694L1869 839Z" fill="#1f1f22" stroke="#18181B"></path><path d="M1945 688L1955 572L1828 503Z" fill="#1c1c1f" stroke="#18181B"></path><path d="M1981 295L1955 246L1845 263Z" fill="#242427" stroke="#18181B"></path><path d="M868 388L851 635L1119 520Z" fill="#242427" stroke="#18181B"></path><path d="M905 670L855 760L988 735Z" fill="#19191c" stroke="#18181B"></path><path d="M1456 1018L1568 1041L1447 982Z" fill="#242427" stroke="#18181B"></path><path d="M1869 839L1749 694L1698 766Z" fill="#19191c" stroke="#18181B"></path><path d="M1869 839L1698 766L1851 911Z" fill="#1b1b1e" stroke="#18181B"></path><path d="M1845 263L1810 72L1734 237Z" fill="#18181b" stroke="#18181B"></path><path d="M1943 135L1810 72L1845 263Z" fill="#222225" stroke="#18181B"></path><path d="M1851 911L1698 766L1646 907Z" fill="#1f1f22" stroke="#18181B"></path><path d="M1147 0L1064 0L1166 107Z" fill="#1f1f22" stroke="#18181B"></path><path d="M1180 1080L1426 1080L1201 933Z" fill="#1b1b1e" stroke="#18181B"></path><path d="M1201 933L1426 1080L1447 982Z" fill="#1b1b1e" stroke="#18181B"></path><path d="M1456 1018L1560 1080L1568 1041Z" fill="#1b1b1e" stroke="#18181B"></path><path d="M930 260L822 304L868 388Z" fill="#252528" stroke="#18181B"></path><path d="M868 388L792 579L851 635Z" fill="#18181b" stroke="#18181B"></path><path d="M895 151L822 304L930 260Z" fill="#18181b" stroke="#18181B"></path><path d="M1064 0L895 151L1081 212Z" fill="#1f1f22" stroke="#18181B"></path><path d="M1981 295L1845 263L1879 396Z" fill="#27272a" stroke="#18181B"></path><path d="M851 635L855 760L905 670Z" fill="#252528" stroke="#18181B"></path><path d="M814 773L855 760L851 635Z" fill="#252528" stroke="#18181B"></path><path d="M764 525L792 579L868 388Z" fill="#1b1b1e" stroke="#18181B"></path><path d="M2117 406L1981 295L1879 396Z" fill="#27272a" stroke="#18181B"></path><path d="M2117 406L1879 396L1955 572Z" fill="#1e1e21" stroke="#18181B"></path><path d="M1426 1080L1560 1080L1456 1018Z" fill="#27272a" stroke="#18181B"></path><path d="M1729 1080L1851 911L1646 907Z" fill="#1e1e21" stroke="#18181B"></path><path d="M779 182L804 323L822 304Z" fill="#27272a" stroke="#18181B"></path><path d="M822 304L804 323L868 388Z" fill="#27272a" stroke="#18181B"></path><path d="M1875 924L1851 911L1875 926Z" fill="#1b1b1e" stroke="#18181B"></path><path d="M1869 839L2055 733L1945 688Z" fill="#1c1c1f" stroke="#18181B"></path><path d="M986 1044L1076 1020L951 823Z" fill="#18181b" stroke="#18181B"></path><path d="M951 823L1076 1020L1075 759Z" fill="#252528" stroke="#18181B"></path><path d="M1136 1080L1180 1080L1201 933Z" fill="#1e1e21" stroke="#18181B"></path><path d="M696 455L764 525L868 388Z" fill="#212124" stroke="#18181B"></path><path d="M814 773L856 843L855 760Z" fill="#19191c" stroke="#18181B"></path><path d="M1875 926L1851 911L1843 1080Z" fill="#1b1b1e" stroke="#18181B"></path><path d="M1851 911L1875 924L1869 839Z" fill="#1e1e21" stroke="#18181B"></path><path d="M1076 1020L1136 1080L1201 933Z" fill="#1c1c1f" stroke="#18181B"></path><path d="M1721 1080L1646 907L1568 1041Z" fill="#242427" stroke="#18181B"></path><path d="M2103 786L2055 733L1869 839Z" fill="#18181b" stroke="#18181B"></path><path d="M814 773L851 635L642 674Z" fill="#1e1e21" stroke="#18181B"></path><path d="M855 760L856 843L951 823Z" fill="#1e1e21" stroke="#18181B"></path><path d="M1076 1020L1063 1080L1136 1080Z" fill="#1f1f22" stroke="#18181B"></path><path d="M2031 174L1943 135L1955 246Z" fill="#212124" stroke="#18181B"></path><path d="M1955 246L1943 135L1845 263Z" fill="#19191c" stroke="#18181B"></path><path d="M751 867L814 773L604 744Z" fill="#222225" stroke="#18181B"></path><path d="M1560 1080L1721 1080L1568 1041Z" fill="#1b1b1e" stroke="#18181B"></path><path d="M1721 1080L1729 1080L1646 907Z" fill="#18181b" stroke="#18181B"></path><path d="M1064 0L922 0L895 151Z" fill="#1b1b1e" stroke="#18181B"></path><path d="M895 151L779 182L822 304Z" fill="#212124" stroke="#18181B"></path><path d="M986 1044L1063 1080L1076 1020Z" fill="#27272a" stroke="#18181B"></path><path d="M1943 135L1882 0L1810 72Z" fill="#222225" stroke="#18181B"></path><path d="M1810 72L1882 0L1643 0Z" fill="#1b1b1e" stroke="#18181B"></path><path d="M694 0L779 182L895 151Z" fill="#222225" stroke="#18181B"></path><path d="M804 323L696 455L868 388Z" fill="#1f1f22" stroke="#18181B"></path><path d="M856 843L986 1044L951 823Z" fill="#1c1c1f" stroke="#18181B"></path><path d="M2103 786L1869 839L1875 924Z" fill="#222225" stroke="#18181B"></path><path d="M1945 688L2109 640L1955 572Z" fill="#19191c" stroke="#18181B"></path><path d="M1943 135L1904 0L1882 0Z" fill="#242427" stroke="#18181B"></path><path d="M562 409L696 455L804 323Z" fill="#242427" stroke="#18181B"></path><path d="M764 525L642 674L792 579Z" fill="#18181b" stroke="#18181B"></path><path d="M1981 295L2031 174L1955 246Z" fill="#19191c" stroke="#18181B"></path><path d="M1943 135L1955 0L1904 0Z" fill="#27272a" stroke="#18181B"></path><path d="M2212 221L2031 174L1981 295Z" fill="#27272a" stroke="#18181B"></path><path d="M2124 433L2117 406L1955 572Z" fill="#18181b" stroke="#18181B"></path><path d="M721 999L981 1080L986 1044Z" fill="#252528" stroke="#18181B"></path><path d="M986 1044L981 1080L1063 1080Z" fill="#212124" stroke="#18181B"></path><path d="M721 999L986 1044L856 843Z" fill="#252528" stroke="#18181B"></path><path d="M2055 733L2098 684L1945 688Z" fill="#1b1b1e" stroke="#18181B"></path><path d="M2098 684L2109 640L1945 688Z" fill="#242427" stroke="#18181B"></path><path d="M2127 560L2124 433L1955 572Z" fill="#242427" stroke="#18181B"></path><path d="M2109 640L2127 560L1955 572Z" fill="#252528" stroke="#18181B"></path><path d="M2031 174L1955 0L1943 135Z" fill="#19191c" stroke="#18181B"></path><path d="M1729 1080L1843 1080L1851 911Z" fill="#19191c" stroke="#18181B"></path><path d="M2145 862L2103 786L1875 924Z" fill="#19191c" stroke="#18181B"></path><path d="M2055 733L2103 786L2098 684Z" fill="#252528" stroke="#18181B"></path><path d="M694 0L717 180L779 182Z" fill="#18181b" stroke="#18181B"></path><path d="M779 182L717 180L804 323Z" fill="#19191c" stroke="#18181B"></path><path d="M642 674L851 635L792 579Z" fill="#27272a" stroke="#18181B"></path><path d="M814 773L751 867L856 843Z" fill="#1e1e21" stroke="#18181B"></path><path d="M2098 684L2211 686L2109 640Z" fill="#18181b" stroke="#18181B"></path><path d="M2109 640L2211 686L2127 560Z" fill="#212124" stroke="#18181B"></path><path d="M2145 862L1875 924L2132 994Z" fill="#18181b" stroke="#18181B"></path><path d="M565 449L642 674L696 455Z" fill="#1c1c1f" stroke="#18181B"></path><path d="M696 455L642 674L764 525Z" fill="#252528" stroke="#18181B"></path><path d="M606 78L676 182L717 180Z" fill="#212124" stroke="#18181B"></path><path d="M717 180L676 182L804 323Z" fill="#212124" stroke="#18181B"></path><path d="M604 744L665 880L751 867Z" fill="#212124" stroke="#18181B"></path><path d="M751 867L721 999L856 843Z" fill="#18181b" stroke="#18181B"></path><path d="M562 409L565 449L696 455Z" fill="#222225" stroke="#18181B"></path><path d="M642 674L604 744L814 773Z" fill="#222225" stroke="#18181B"></path><path d="M562 715L604 744L642 674Z" fill="#18181b" stroke="#18181B"></path><path d="M2132 994L1875 924L1875 926Z" fill="#252528" stroke="#18181B"></path><path d="M2103 786L2211 686L2098 684Z" fill="#1b1b1e" stroke="#18181B"></path><path d="M2127 560L2257 561L2124 433Z" fill="#252528" stroke="#18181B"></path><path d="M2145 862L2211 686L2103 786Z" fill="#222225" stroke="#18181B"></path><path d="M2336 424L2212 221L2117 406Z" fill="#242427" stroke="#18181B"></path><path d="M676 182L562 409L804 323Z" fill="#212124" stroke="#18181B"></path><path d="M665 880L721 999L751 867Z" fill="#212124" stroke="#18181B"></path><path d="M922 0L694 0L895 151Z" fill="#222225" stroke="#18181B"></path><path d="M676 182L448 304L562 409Z" fill="#252528" stroke="#18181B"></path><path d="M2117 406L2212 221L1981 295Z" fill="#19191c" stroke="#18181B"></path><path d="M2031 174L2216 0L1955 0Z" fill="#27272a" stroke="#18181B"></path><path d="M2336 424L2117 406L2124 433Z" fill="#1f1f22" stroke="#18181B"></path><path d="M2243 662L2257 561L2127 560Z" fill="#1e1e21" stroke="#18181B"></path><path d="M2392 659L2243 662L2396 785Z" fill="#1f1f22" stroke="#18181B"></path><path d="M2211 686L2243 662L2127 560Z" fill="#18181b" stroke="#18181B"></path><path d="M454 516L562 715L642 674Z" fill="#1b1b1e" stroke="#18181B"></path><path d="M604 744L433 916L665 880Z" fill="#1f1f22" stroke="#18181B"></path><path d="M590 1080L715 1080L721 999Z" fill="#212124" stroke="#18181B"></path><path d="M556 727L562 715L427 692Z" fill="#242427" stroke="#18181B"></path><path d="M2292 161L2212 178L2212 221Z" fill="#252528" stroke="#18181B"></path><path d="M2212 221L2212 178L2031 174Z" fill="#27272a" stroke="#18181B"></path><path d="M454 516L642 674L565 449Z" fill="#27272a" stroke="#18181B"></path><path d="M562 715L556 727L604 744Z" fill="#212124" stroke="#18181B"></path><path d="M606 78L590 116L676 182Z" fill="#1b1b1e" stroke="#18181B"></path><path d="M694 0L606 78L717 180Z" fill="#1e1e21" stroke="#18181B"></path><path d="M2125 1080L2132 994L1875 926Z" fill="#27272a" stroke="#18181B"></path><path d="M2145 862L2338 874L2211 686Z" fill="#222225" stroke="#18181B"></path><path d="M2243 662L2290 543L2257 561Z" fill="#212124" stroke="#18181B"></path><path d="M2257 561L2290 543L2124 433Z" fill="#19191c" stroke="#18181B"></path><path d="M2309 532L2290 543L2370 565Z" fill="#1b1b1e" stroke="#18181B"></path><path d="M448 304L501 445L562 409Z" fill="#27272a" stroke="#18181B"></path><path d="M562 409L501 445L565 449Z" fill="#19191c" stroke="#18181B"></path><path d="M584 984L721 999L665 880Z" fill="#1f1f22" stroke="#18181B"></path><path d="M721 999L715 1080L981 1080Z" fill="#242427" stroke="#18181B"></path><path d="M2370 565L2290 543L2243 662Z" fill="#252528" stroke="#18181B"></path><path d="M2290 543L2336 424L2124 433Z" fill="#1e1e21" stroke="#18181B"></path><path d="M1843 1080L2125 1080L1875 926Z" fill="#252528" stroke="#18181B"></path><path d="M2132 994L2255 992L2145 862Z" fill="#19191c" stroke="#18181B"></path><path d="M2309 532L2336 424L2290 543Z" fill="#222225" stroke="#18181B"></path><path d="M501 445L454 516L565 449Z" fill="#1b1b1e" stroke="#18181B"></path><path d="M433 916L584 984L665 880Z" fill="#27272a" stroke="#18181B"></path><path d="M337 441L454 516L501 445Z" fill="#19191c" stroke="#18181B"></path><path d="M2331 188L2292 161L2212 221Z" fill="#212124" stroke="#18181B"></path><path d="M2212 178L2216 0L2031 174Z" fill="#19191c" stroke="#18181B"></path><path d="M2292 161L2216 0L2212 178Z" fill="#27272a" stroke="#18181B"></path><path d="M433 916L604 744L556 727Z" fill="#18181b" stroke="#18181B"></path><path d="M365 154L448 304L590 116Z" fill="#1e1e21" stroke="#18181B"></path><path d="M590 116L448 304L676 182Z" fill="#1f1f22" stroke="#18181B"></path><path d="M2125 1080L2171 1080L2132 994Z" fill="#18181b" stroke="#18181B"></path><path d="M2309 532L2370 565L2336 424Z" fill="#252528" stroke="#18181B"></path><path d="M2336 424L2331 188L2212 221Z" fill="#1e1e21" stroke="#18181B"></path><path d="M2392 659L2370 565L2243 662Z" fill="#1f1f22" stroke="#18181B"></path><path d="M2462 305L2331 188L2336 424Z" fill="#222225" stroke="#18181B"></path><path d="M2292 161L2276 0L2216 0Z" fill="#1e1e21" stroke="#18181B"></path><path d="M694 0L545 0L606 78Z" fill="#212124" stroke="#18181B"></path><path d="M606 78L545 0L590 116Z" fill="#212124" stroke="#18181B"></path><path d="M306 714L427 692L279 479Z" fill="#27272a" stroke="#18181B"></path><path d="M454 516L427 692L562 715Z" fill="#222225" stroke="#18181B"></path><path d="M2171 1080L2255 992L2132 994Z" fill="#252528" stroke="#18181B"></path><path d="M489 1080L590 1080L584 984Z" fill="#1b1b1e" stroke="#18181B"></path><path d="M584 984L590 1080L721 999Z" fill="#1e1e21" stroke="#18181B"></path><path d="M2418 68L2276 0L2292 161Z" fill="#19191c" stroke="#18181B"></path><path d="M2396 785L2243 662L2211 686Z" fill="#1b1b1e" stroke="#18181B"></path><path d="M2560 417L2462 305L2336 424Z" fill="#1c1c1f" stroke="#18181B"></path><path d="M545 0L513 0L590 116Z" fill="#242427" stroke="#18181B"></path><path d="M2255 992L2338 874L2145 862Z" fill="#222225" stroke="#18181B"></path><path d="M2255 992L2346 890L2338 874Z" fill="#222225" stroke="#18181B"></path><path d="M2396 785L2413 671L2392 659Z" fill="#1c1c1f" stroke="#18181B"></path><path d="M2396 785L2211 686L2338 874Z" fill="#18181b" stroke="#18181B"></path><path d="M2392 659L2413 671L2370 565Z" fill="#1f1f22" stroke="#18181B"></path><path d="M2346 890L2396 785L2338 874Z" fill="#27272a" stroke="#18181B"></path><path d="M365 154L353 380L448 304Z" fill="#242427" stroke="#18181B"></path><path d="M448 304L353 380L501 445Z" fill="#18181b" stroke="#18181B"></path><path d="M427 692L433 916L556 727Z" fill="#222225" stroke="#18181B"></path><path d="M343 813L433 916L427 692Z" fill="#27272a" stroke="#18181B"></path><path d="M353 380L337 441L501 445Z" fill="#212124" stroke="#18181B"></path><path d="M2255 992L2363 961L2346 890Z" fill="#1c1c1f" stroke="#18181B"></path><path d="M2560 950L2560 779L2396 785Z" fill="#1f1f22" stroke="#18181B"></path><path d="M2306 1080L2363 961L2255 992Z" fill="#212124" stroke="#18181B"></path><path d="M513 0L438 0L590 116Z" fill="#1c1c1f" stroke="#18181B"></path><path d="M229 455L279 479L337 441Z" fill="#19191c" stroke="#18181B"></path><path d="M2560 441L2336 424L2370 565Z" fill="#27272a" stroke="#18181B"></path><path d="M2331 188L2418 68L2292 161Z" fill="#252528" stroke="#18181B"></path><path d="M2171 1080L2306 1080L2255 992Z" fill="#1e1e21" stroke="#18181B"></path><path d="M438 0L365 154L590 116Z" fill="#1f1f22" stroke="#18181B"></path><path d="M433 1051L489 1080L584 984Z" fill="#1f1f22" stroke="#18181B"></path><path d="M2462 305L2450 175L2331 188Z" fill="#27272a" stroke="#18181B"></path><path d="M2450 175L2418 68L2331 188Z" fill="#242427" stroke="#18181B"></path><path d="M306 714L343 813L427 692Z" fill="#1f1f22" stroke="#18181B"></path><path d="M433 916L433 1051L584 984Z" fill="#19191c" stroke="#18181B"></path><path d="M279 479L427 692L454 516Z" fill="#1e1e21" stroke="#18181B"></path><path d="M279 479L454 516L337 441Z" fill="#242427" stroke="#18181B"></path><path d="M382 1080L433 1051L433 916Z" fill="#1e1e21" stroke="#18181B"></path><path d="M229 455L337 441L353 380Z" fill="#222225" stroke="#18181B"></path><path d="M296 0L299 128L365 154Z" fill="#252528" stroke="#18181B"></path><path d="M365 154L261 180L353 380Z" fill="#212124" stroke="#18181B"></path><path d="M2560 687L2413 671L2560 779Z" fill="#19191c" stroke="#18181B"></path><path d="M2560 687L2560 514L2413 671Z" fill="#222225" stroke="#18181B"></path><path d="M2413 671L2560 514L2370 565Z" fill="#1c1c1f" stroke="#18181B"></path><path d="M2462 305L2560 220L2450 175Z" fill="#18181b" stroke="#18181B"></path><path d="M2450 175L2496 0L2418 68Z" fill="#212124" stroke="#18181B"></path><path d="M2560 514L2560 441L2370 565Z" fill="#222225" stroke="#18181B"></path><path d="M2560 441L2560 417L2336 424Z" fill="#222225" stroke="#18181B"></path><path d="M261 180L229 455L353 380Z" fill="#19191c" stroke="#18181B"></path><path d="M279 479L173 573L306 714Z" fill="#27272a" stroke="#18181B"></path><path d="M250 1055L382 1080L433 916Z" fill="#27272a" stroke="#18181B"></path><path d="M433 1051L382 1080L489 1080Z" fill="#1e1e21" stroke="#18181B"></path><path d="M250 1055L433 916L179 949Z" fill="#1e1e21" stroke="#18181B"></path><path d="M245 795L343 813L306 714Z" fill="#222225" stroke="#18181B"></path><path d="M299 128L261 180L365 154Z" fill="#1b1b1e" stroke="#18181B"></path><path d="M2306 1080L2417 1080L2363 961Z" fill="#222225" stroke="#18181B"></path><path d="M2560 779L2413 671L2396 785Z" fill="#1e1e21" stroke="#18181B"></path><path d="M2396 785L2346 890L2560 950Z" fill="#1c1c1f" stroke="#18181B"></path><path d="M2560 417L2560 220L2462 305Z" fill="#1e1e21" stroke="#18181B"></path><path d="M137 585L245 795L306 714Z" fill="#1b1b1e" stroke="#18181B"></path><path d="M2560 220L2560 207L2450 175Z" fill="#222225" stroke="#18181B"></path><path d="M2560 950L2346 890L2363 961Z" fill="#1e1e21" stroke="#18181B"></path><path d="M2560 0L2496 0L2450 175Z" fill="#1b1b1e" stroke="#18181B"></path><path d="M2418 68L2496 0L2276 0Z" fill="#252528" stroke="#18181B"></path><path d="M438 0L296 0L365 154Z" fill="#18181b" stroke="#18181B"></path><path d="M299 128L197 84L261 180Z" fill="#1b1b1e" stroke="#18181B"></path><path d="M229 455L189 515L279 479Z" fill="#1b1b1e" stroke="#18181B"></path><path d="M30 341L189 515L229 455Z" fill="#212124" stroke="#18181B"></path><path d="M173 573L189 515L137 585Z" fill="#252528" stroke="#18181B"></path><path d="M137 585L189 515L0 459Z" fill="#1e1e21" stroke="#18181B"></path><path d="M189 515L173 573L279 479Z" fill="#1f1f22" stroke="#18181B"></path><path d="M2417 1080L2560 950L2363 961Z" fill="#19191c" stroke="#18181B"></path><path d="M2560 207L2560 0L2450 175Z" fill="#1c1c1f" stroke="#18181B"></path><path d="M162 168L229 455L261 180Z" fill="#242427" stroke="#18181B"></path><path d="M173 573L137 585L306 714Z" fill="#27272a" stroke="#18181B"></path><path d="M179 949L433 916L343 813Z" fill="#1b1b1e" stroke="#18181B"></path><path d="M296 0L197 84L299 128Z" fill="#1b1b1e" stroke="#18181B"></path><path d="M197 84L162 168L261 180Z" fill="#242427" stroke="#18181B"></path><path d="M179 949L343 813L245 795Z" fill="#212124" stroke="#18181B"></path><path d="M55 785L179 949L245 795Z" fill="#1c1c1f" stroke="#18181B"></path><path d="M2417 1080L2560 1080L2560 950Z" fill="#212124" stroke="#18181B"></path><path d="M179 949L234 1080L250 1055Z" fill="#252528" stroke="#18181B"></path><path d="M250 1055L234 1080L382 1080Z" fill="#222225" stroke="#18181B"></path><path d="M115 0L121 144L197 84Z" fill="#1f1f22" stroke="#18181B"></path><path d="M197 84L121 144L162 168Z" fill="#27272a" stroke="#18181B"></path><path d="M162 168L30 341L229 455Z" fill="#18181b" stroke="#18181B"></path><path d="M296 0L115 0L197 84Z" fill="#1f1f22" stroke="#18181B"></path><path d="M0 563L55 785L137 585Z" fill="#27272a" stroke="#18181B"></path><path d="M30 341L162 168L0 277Z" fill="#222225" stroke="#18181B"></path><path d="M137 585L55 785L245 795Z" fill="#18181b" stroke="#18181B"></path><path d="M179 949L87 1080L234 1080Z" fill="#19191c" stroke="#18181B"></path><path d="M0 277L162 168L121 144Z" fill="#1c1c1f" stroke="#18181B"></path><path d="M0 277L0 459L30 341Z" fill="#252528" stroke="#18181B"></path><path d="M30 341L0 459L189 515Z" fill="#222225" stroke="#18181B"></path><path d="M0 459L0 563L137 585Z" fill="#252528" stroke="#18181B"></path><path d="M0 142L0 277L121 144Z" fill="#212124" stroke="#18181B"></path><path d="M0 791L29 847L55 785Z" fill="#212124" stroke="#18181B"></path><path d="M55 785L29 847L179 949Z" fill="#222225" stroke="#18181B"></path><path d="M0 563L0 791L55 785Z" fill="#1c1c1f" stroke="#18181B"></path><path d="M0 882L179 949L29 847Z" fill="#19191c" stroke="#18181B"></path><path d="M0 972L87 1080L179 949Z" fill="#1e1e21" stroke="#18181B"></path><path d="M0 20L0 142L121 144Z" fill="#1e1e21" stroke="#18181B"></path><path d="M0 791L0 882L29 847Z" fill="#27272a" stroke="#18181B"></path><path d="M115 0L0 20L121 144Z" fill="#1c1c1f" stroke="#18181B"></path><path d="M0 882L0 972L179 949Z" fill="#1b1b1e" stroke="#18181B"></path><path d="M115 0L0 0L0 20Z" fill="#1c1c1f" stroke="#18181B"></path><path d="M0 972L0 1080L87 1080Z" fill="#1e1e21" stroke="#18181B"></path></g></svg>